HIERARCHY
ROOT pelvis
{
	OFFSET 0.000000 0.727022 -0.000000
	CHANNELS 6 Xposition Yposition Zposition Xrotation Yrotation Zrotation
	JOINT spine
	{
		OFFSET 0.000000 0.000000 0.000000
		CHANNELS 6 Xposition Yposition Zposition Xrotation Yrotation Zrotation
		JOINT spine.001
		{
			OFFSET 0.000000 0.207059 0.010851
			CHANNELS 3 Xrotation Yrotation Zrotation
			JOINT neck
			{
				OFFSET 0.000000 0.205797 -0.025269
				CHANNELS 6 Xposition Yposition Zposition Xrotation Yrotation Zrotation
				JOINT face
				{
					OFFSET 0.000000 0.159761 -0.002789
					CHANNELS 6 Xposition Yposition Zposition Xrotation Yrotation Zrotation
					End Site
					{
						OFFSET 0.000000 -0.006953 0.017303
					}
				}
			}
			JOINT shoulder.L
			{
				OFFSET 0.000000 0.205797 -0.025269
				CHANNELS 6 Xposition Yposition Zposition Yrotation Xrotation Zrotation
				JOINT upper_arm.L
				{
					OFFSET 0.137806 0.000000 0.000000
					CHANNELS 6 Xposition Yposition Zposition Xrotation Yrotation Zrotation
					JOINT forearm.L
					{
						OFFSET 0.219414 0.000841 -0.000101
						CHANNELS 6 Xposition Yposition Zposition Xrotation Yrotation Zrotation
						End Site
						{
							OFFSET 0.205039 -0.001158 0.003486
						}
					}
				}
			}
			JOINT shoulder.R
			{
				OFFSET 0.000000 0.205797 -0.025269
				CHANNELS 6 Xposition Yposition Zposition Yrotation Xrotation Zrotation
				JOINT upper_arm.R
				{
					OFFSET -0.137806 0.000000 0.000000
					CHANNELS 6 Xposition Yposition Zposition Xrotation Yrotation Zrotation
					JOINT forearm.R
					{
						OFFSET -0.215908 0.000841 -0.000101
						CHANNELS 6 Xposition Yposition Zposition Xrotation Yrotation Zrotation
						End Site
						{
							OFFSET -0.209494 -0.001159 0.003564
						}
					}
				}
			}
		}
	}
	JOINT pelvis.L
	{
		OFFSET 0.000000 0.000000 0.000000
		CHANNELS 6 Xposition Yposition Zposition Yrotation Xrotation Zrotation
		End Site
		{
			OFFSET 0.089911 0.000000 0.000000
		}
	}
	JOINT pelvis.R
	{
		OFFSET 0.000000 0.000000 0.000000
		CHANNELS 6 Xposition Yposition Zposition Yrotation Xrotation Zrotation
		End Site
		{
			OFFSET -0.089911 0.000000 0.000000
		}
	}
	JOINT thigh.L
	{
		OFFSET 0.089911 0.000000 0.000000
		CHANNELS 6 Xposition Yposition Zposition Xrotation Yrotation Zrotation
		JOINT shin.L
		{
			OFFSET 0.019079 -0.364056 0.000000
			CHANNELS 6 Xposition Yposition Zposition Xrotation Yrotation Zrotation
			JOINT foot.L
			{
				OFFSET 0.016153 -0.308217 0.000000
				CHANNELS 6 Xposition Yposition Zposition Xrotation Yrotation Zrotation
				End Site
				{
					OFFSET 0.012549 -0.053728 0.127950
				}
			}
		}
	}
	JOINT thigh.R
	{
		OFFSET -0.089911 0.000000 0.000000
		CHANNELS 6 Xposition Yposition Zposition Xrotation Yrotation Zrotation
		JOINT shin.R
		{
			OFFSET -0.019310 -0.368456 0.000000
			CHANNELS 6 Xposition Yposition Zposition Xrotation Yrotation Zrotation
			JOINT foot.R
			{
				OFFSET -0.015935 -0.304053 0.000000
				CHANNELS 6 Xposition Yposition Zposition Xrotation Yrotation Zrotation
				End Site
				{
					OFFSET -0.012210 -0.052277 0.124494
				}
			}
		}
	}
}
MOTION
Frames: 6
Frame Time: 0.041667
0.002083 -0.000482 0.024408 0.000001 -14.220359 0.000007 -0.000000 -0.000000 0.000000 -1.105349 0.078958 -1.271921 10.003005 -1.700280 0.208833 0.000000 0.205797 -0.025269 24.982006 -37.395060 15.316559 -0.000000 0.159761 -0.002789 -4.253166 0.000032 -0.000005 -0.000000 0.205797 -0.025269 0.194583 -0.002696 1.584983 0.137807 -0.000000 -0.000000 -11.715415 -13.526592 -81.947483 0.219414 0.000841 -0.000101 -7.279672 -32.852155 -24.984511 -0.000000 0.205797 -0.025269 0.187860 -0.002506 1.530569 -0.137806 -0.000000 -0.000000 -14.112843 16.751505 80.379975 -0.215908 0.000841 -0.000101 -9.986132 30.972046 36.306164 0.000000 0.000000 -0.000000 -0.000061 -0.000000 -0.123444 0.000000 0.000000 -0.000000 -0.000003 -0.000000 -0.123444 0.089911 -0.000194 -0.000000 9.182525 -0.134594 -7.675787 0.019079 -0.364056 0.000000 -6.909772 -0.898303 8.797074 0.016153 -0.308217 0.000000 -0.718282 5.408118 2.371923 -0.089911 0.000194 -0.000000 6.784521 -0.226039 2.187963 -0.019310 -0.368456 0.000000 -7.969293 0.674374 -3.658609 -0.015935 -0.304053 0.000000 1.079320 14.741152 6.239022 
0.001534 -0.000364 0.025374 0.000001 -12.439252 0.000007 -0.000000 -0.000000 0.000000 -1.121659 0.076566 -1.230297 10.003504 -1.801514 0.221270 -0.000000 0.205797 -0.025269 25.494497 -38.687622 16.493319 0.000000 0.159761 -0.002789 -4.097468 -0.000012 0.000003 0.000000 0.205797 -0.025269 0.224632 -0.003591 1.830617 0.137807 0.000000 -0.000000 -12.340931 -14.126066 -82.445574 0.219414 0.000841 -0.000101 -7.358833 -32.427044 -25.624739 -0.000000 0.205798 -0.025269 0.217987 -0.003378 1.776142 -0.137806 -0.000000 -0.000000 -13.217780 15.830169 79.872649 -0.215908 0.000841 -0.000101 -10.125588 31.533576 36.091546 0.000000 0.000000 0.000000 0.000020 0.000000 -0.190485 0.000000 0.000000 0.000000 0.000001 0.000000 -0.190522 0.089911 -0.000299 -0.000000 9.189534 -0.111704 -7.389793 0.019079 -0.364056 0.000000 -7.073540 -0.903397 8.538371 0.016153 -0.308217 0.000000 -0.800074 3.973591 1.774486 -0.089911 0.000299 -0.000000 6.983246 -0.215357 2.471612 -0.019310 -0.368456 0.000000 -7.537360 0.654237 -3.907416 -0.015935 -0.304053 0.000000 0.596168 13.321734 5.656070 
0.001389 -0.000566 0.025451 0.000001 -11.578391 0.000006 -0.000000 -0.000000 0.000000 -1.161015 0.076151 -1.216984 10.003825 -1.898017 0.233137 0.000000 0.205797 -0.025269 25.981657 -39.183439 17.040460 -0.000000 0.159761 -0.002789 -4.091404 0.000001 -0.000002 -0.000000 0.205797 -0.025269 0.240048 -0.004098 1.955607 0.137807 -0.000000 -0.000000 -12.101540 -13.756220 -82.840264 0.219414 0.000841 -0.000101 -7.017231 -31.898903 -24.892756 0.000000 0.205798 -0.025269 0.233369 -0.003871 1.901186 -0.137807 -0.000000 0.000000 -12.850215 15.483982 79.527383 -0.215908 0.000841 -0.000101 -10.055760 31.393015 36.025194 0.000000 0.000000 0.000000 0.000033 0.000000 -0.168568 0.000000 0.000000 0.000000 0.000002 0.000000 -0.168530 0.089911 -0.000264 0.000000 9.134192 -0.101323 -7.268327 0.019079 -0.364056 0.000000 -7.066726 -0.895285 8.423055 0.016153 -0.308217 0.000000 -0.936968 3.297982 1.504963 -0.089911 0.000265 0.000000 6.988181 -0.206889 2.612667 -0.019310 -0.368456 0.000000 -7.192469 0.630782 -4.011165 -0.015935 -0.304053 0.000000 0.284152 12.691924 5.396997 
0.001499 -0.001222 0.025337 0.000001 -11.224420 0.000006 -0.000000 -0.000000 0.000000 -1.144873 0.074918 -1.199962 10.003761 -1.875215 0.230330 -0.000000 0.205797 -0.025269 26.178881 -39.459943 17.338403 0.000000 0.159761 -0.002789 -4.012631 -0.000000 -0.000006 -0.000000 0.205798 -0.025269 0.249941 -0.004445 2.036514 0.137807 -0.000000 -0.000000 -11.638813 -13.117654 -83.324237 0.219414 0.000841 -0.000101 -5.907637 -30.217570 -22.264240 0.000000 0.205797 -0.025269 0.243296 -0.004212 1.982090 -0.137807 0.000000 -0.000000 -12.674642 15.348081 79.247044 -0.215908 0.000841 -0.000101 -9.750183 30.687722 35.837337 0.000000 0.000000 0.000000 -0.000085 -0.000000 -0.150716 0.000000 0.000000 0.000000 0.000001 0.000000 -0.150716 0.089911 -0.000237 0.000000 9.117000 -0.099623 -7.249407 0.019079 -0.364056 0.000000 -7.030244 -0.889053 8.397339 0.016153 -0.308217 0.000000 -1.148298 3.009445 1.409021 -0.089911 0.000237 -0.000000 6.926327 -0.201985 2.663186 -0.019310 -0.368456 0.000000 -6.930790 0.608647 -4.025495 -0.015935 -0.304053 0.000000 0.127865 12.469887 5.306266 
0.001905 -0.002373 0.024854 0.000001 -11.466861 0.000006 -0.000000 -0.000000 0.000000 -1.072362 0.073148 -1.183688 10.002319 -1.486951 0.182625 0.000000 0.205797 -0.025269 26.178560 -39.560784 17.514137 -0.000000 0.159761 -0.002789 -3.943409 0.000009 0.000001 0.000000 0.205797 -0.025269 0.251251 -0.004485 2.047219 0.137807 0.000000 -0.000000 -11.504777 -12.839747 -83.884080 0.219414 0.000841 -0.000101 -4.406048 -27.393519 -18.487966 -0.000000 0.205797 -0.025269 0.244609 -0.004254 1.992846 -0.137806 -0.000000 -0.000000 -12.833242 15.549629 79.212388 -0.215908 0.000841 -0.000101 -9.139945 29.469876 35.177803 0.000000 0.000000 0.000000 -0.000004 -0.000000 -0.185053 0.000000 0.000000 0.000000 0.000003 0.000000 -0.185015 0.089911 -0.000290 0.000000 9.087231 -0.106882 -7.344856 0.019079 -0.364056 0.000000 -6.918320 -0.879748 8.476807 0.016153 -0.308217 0.000000 -1.372956 3.221013 1.529568 -0.089911 0.000290 0.000000 6.838994 -0.202908 2.605103 -0.019310 -0.368456 0.000000 -6.873823 0.599129 -3.950947 -0.015935 -0.304053 0.000000 0.122115 12.669869 5.392853 
0.002538 -0.003919 0.023841 0.000000 -12.072322 0.000006 -0.000000 -0.000000 0.000000 -1.014129 0.071206 -1.161861 10.001005 -0.987213 0.121231 -0.000000 0.205797 -0.025269 26.194168 -39.345489 17.452072 0.000000 0.159761 -0.002789 -4.026082 0.000012 -0.000001 0.000000 0.205798 -0.025269 0.238677 -0.004050 1.944378 0.137807 -0.000000 -0.000000 -11.343912 -12.591817 -84.192142 0.219414 0.000841 -0.000101 -3.367341 -25.178543 -15.455695 -0.000000 0.205798 -0.025269 0.232027 -0.003826 1.890003 -0.137807 -0.000000 0.000000 -13.565793 16.324693 79.600329 -0.215908 0.000841 -0.000101 -8.239711 27.757189 33.954489 -0.000000 0.000000 0.000000 0.000079 0.000000 -0.235343 -0.000000 0.000000 0.000000 -0.000001 0.000000 -0.235343 0.089911 -0.000369 0.000000 8.973548 -0.118581 -7.510960 0.019079 -0.364056 0.000000 -6.679731 -0.858700 8.634866 0.016153 -0.308217 0.000000 -1.619599 3.748704 1.791311 -0.089911 0.000369 0.000000 6.777130 -0.208562 2.478793 -0.019310 -0.368456 0.000000 -7.073772 0.609483 -3.836627 -0.015935 -0.304053 0.000000 0.222010 13.091717 5.571584 
